<?xml version="1.0" standalone="no"?>
<!DOCTYPE svg PUBLIC "-//W3C//DTD SVG 20010904//EN"
 "http://www.w3.org/TR/2001/REC-SVG-20010904/DTD/svg10.dtd">
<svg version="1.0" xmlns="http://www.w3.org/2000/svg"
 width="700.000000pt" height="700.000000pt" viewBox="0 0 700.000000 700.000000"
 preserveAspectRatio="xMidYMid meet">
<metadata>
Created by potrace 1.14, written by Peter Selinger 2001-2017
</metadata>
<g transform="translate(0.000000,700.000000) scale(0.100000,-0.100000)"
fill="#000000" stroke="none">
<path d="M2632 6973 c-16 -24 -104 -179 -200 -353 -13 -25 -32 -58 -42 -75
-10 -16 -31 -55 -48 -85 -29 -54 -102 -186 -157 -285 -218 -389 -272 -487
-293 -525 -13 -25 -32 -58 -42 -75 -10 -16 -29 -51 -44 -77 -14 -27 -37 -67
-50 -90 -13 -24 -38 -70 -56 -103 -18 -33 -49 -89 -70 -125 -30 -52 -238 -425
-365 -655 -13 -22 -97 -175 -189 -340 -91 -165 -171 -307 -176 -315 -5 -8 -29
-51 -53 -95 -66 -120 -86 -155 -265 -475 -91 -162 -179 -320 -195 -350 -17
-30 -58 -104 -92 -165 -34 -60 -78 -140 -99 -178 l-37 -67 450 0 c338 1 452 4
459 13 5 7 37 66 72 132 34 66 70 134 80 150 9 17 40 73 67 125 70 132 280
525 310 580 33 59 42 70 73 83 17 8 518 11 1687 12 914 1 1665 4 1668 7 6 6
-394 717 -422 749 -12 14 -120 16 -1160 15 -1058 -1 -1149 0 -1184 15 -42 19
-69 62 -71 112 -1 29 43 123 109 232 7 11 16 27 20 35 4 8 21 40 39 70 39 68
79 140 114 205 15 28 36 66 47 85 11 19 31 55 45 80 14 25 65 117 115 205 49
88 105 187 123 220 104 189 637 1143 696 1247 24 43 44 80 44 83 0 3 -200 5
-444 5 l-445 0 -19 -27z"/>
<path d="M3724 6793 c-21 -38 -54 -97 -74 -133 -21 -36 -50 -87 -65 -115 -44
-80 -120 -217 -145 -260 -13 -22 -35 -62 -50 -90 -15 -27 -92 -165 -170 -305
-79 -140 -154 -275 -168 -300 -14 -25 -45 -80 -69 -123 -24 -42 -55 -99 -70
-125 -14 -26 -46 -82 -69 -124 -24 -43 -44 -82 -44 -88 0 -5 -4 -10 -10 -10
-5 0 -10 -4 -10 -9 0 -5 -25 -53 -55 -106 -30 -54 -55 -98 -55 -99 0 -1 -29
-54 -65 -117 -36 -63 -65 -117 -65 -120 0 -4 198 -7 439 -6 l440 0 97 176 c54
97 108 194 120 216 17 32 251 453 496 893 66 119 86 165 80 180 -3 9 -59 104
-124 211 -66 108 -163 269 -216 358 -53 89 -100 163 -104 163 -4 0 -24 -30
-44 -67z"/>
<path d="M5518 5458 c11 -18 31 -53 44 -78 14 -25 67 -119 118 -210 51 -91
104 -185 118 -210 14 -25 40 -71 58 -103 19 -32 34 -60 34 -63 0 -2 11 -21 25
-42 l24 -37 453 2 c249 1 454 2 455 2 2 1 -39 70 -90 154 -52 83 -149 244
-217 357 -68 113 -134 217 -148 233 l-26 27 -434 0 -434 0 20 -32z"/>
<path d="M5257 5338 c-8 -13 -46 -81 -84 -153 -39 -71 -85 -157 -103 -190 -18
-33 -41 -73 -50 -90 -10 -16 -37 -66 -60 -110 -24 -44 -65 -120 -92 -168 l-49
-89 63 -111 c34 -62 79 -140 100 -175 21 -34 38 -64 38 -66 0 -2 29 -53 64
-114 78 -134 110 -190 149 -260 16 -29 30 -52 32 -50 5 6 172 313 225 413 29
55 56 105 60 110 4 6 36 64 70 130 35 66 70 131 79 146 14 25 10 33 -149 315
-204 361 -190 336 -234 417 -21 37 -39 67 -42 67 -2 0 -10 -10 -17 -22z"/>
<path d="M5921 4431 c-12 -16 -21 -32 -21 -35 0 -3 -37 -74 -83 -158 -46 -84
-86 -160 -90 -168 -4 -8 -18 -33 -30 -55 -13 -22 -44 -80 -70 -128 -160 -297
-253 -464 -266 -475 -9 -7 -27 -17 -40 -22 -15 -7 -625 -10 -1698 -10 l-1675
0 20 -33 c17 -28 105 -181 159 -277 23 -41 146 -253 168 -290 8 -14 36 -61 61
-106 l46 -80 1161 0 c1121 1 1163 0 1190 -18 36 -24 60 -72 59 -115 -1 -18
-17 -61 -36 -95 -18 -33 -46 -83 -62 -111 -21 -39 -386 -694 -526 -945 -14
-25 -83 -148 -153 -275 -71 -126 -140 -250 -153 -275 -14 -25 -114 -205 -223
-400 l-197 -355 434 -3 c259 -1 442 2 453 7 9 5 53 74 97 152 43 79 84 151 89
161 6 9 20 35 32 57 12 22 88 158 169 303 80 145 257 461 392 703 135 242 288
517 340 610 52 94 108 195 125 225 16 30 50 90 74 133 24 42 55 99 70 125 14
26 90 162 168 302 78 140 174 311 212 380 38 69 79 141 90 160 11 19 36 64 55
100 20 36 98 178 175 315 77 138 153 275 170 305 16 30 71 127 120 215 50 88
95 170 102 183 l12 22 -450 0 -450 0 -20 -29z"/>
<path d="M1717 3223 c-3 -10 -25 -54 -49 -98 -25 -44 -70 -129 -102 -190 -33
-60 -67 -123 -76 -140 -10 -16 -41 -75 -70 -130 -29 -55 -71 -133 -93 -174
l-40 -74 30 -56 c17 -31 75 -135 130 -232 55 -97 103 -183 107 -190 4 -8 12
-23 19 -34 7 -11 43 -76 81 -144 79 -142 69 -142 138 -6 22 44 44 85 48 90 4
6 38 69 75 140 37 72 85 162 105 200 21 39 59 111 85 160 26 50 52 94 56 100
16 17 9 37 -43 129 -29 50 -57 99 -63 109 -79 140 -256 444 -282 485 -18 29
-33 57 -33 62 0 17 -17 11 -23 -7z"/>
<path d="M3538 2260 c-23 -41 -51 -93 -63 -115 -83 -149 -333 -600 -358 -645
-45 -82 -117 -213 -127 -230 -114 -200 -200 -365 -200 -383 0 -14 84 -162 191
-338 105 -173 196 -323 202 -334 7 -11 21 -34 33 -53 l21 -33 60 108 c33 60
75 135 93 168 18 33 36 65 40 70 4 6 21 35 37 65 40 74 419 756 558 1005 61
110 127 227 145 260 18 33 84 152 147 264 62 112 113 206 113 208 0 3 9 18 20
33 l20 28 -445 -1 -445 -1 -42 -76z"/>
<path d="M161 2280 c-4 -3 86 -158 200 -345 115 -187 215 -354 224 -372 9 -17
28 -36 43 -42 19 -8 158 -10 448 -9 l422 3 -60 105 c-33 58 -75 132 -93 165
-18 33 -89 159 -157 280 l-124 219 -448 1 c-246 0 -451 -2 -455 -5z"/>
</g>
</svg>
